<svg width="66" height="66" viewBox="0 0 66 66" fill="none" xmlns="http://www.w3.org/2000/svg">
<path d="M23.4056 26.5188C24.6275 25.3819 24.755 23.5013 23.7244 22.1944L15.2563 11.6225C14.1619 10.2519 12.175 10.0181 10.7938 11.1125L8.80688 12.6106L21.4081 28.3569L23.4056 26.5188Z" fill="#093952"/>
<path d="M35.125 47.3225C34.4025 48.0875 33.2337 48.215 32.3625 47.62L32.1711 47.4819C29.5044 45.6331 27.018 43.5506 24.7336 41.2662C22.4493 38.9819 20.3668 36.4955 18.518 33.8287L18.3799 33.6374C17.7849 32.7662 17.9124 31.5974 18.6774 30.8749L19.8355 29.8018L7.10687 13.8962L4.1 16.17C2.825 17.1687 1.81562 18.4437 1.125 19.8782C0.434375 21.302 0.0625 22.8851 0.0625 24.5107C0.0625 31.8632 2.6125 38.9926 7.26625 44.6982L7.46802 44.9426C9.49739 47.4288 11.6543 49.8088 13.928 52.072C16.1911 54.3457 18.5711 56.5026 21.0574 58.532L21.3018 58.7337C27.0074 63.3875 34.1368 65.9375 41.4893 65.9375C43.1149 65.9375 44.698 65.5656 46.1218 64.875C47.5561 64.1844 48.8311 63.175 49.83 61.9L52.1037 58.8931L36.1981 46.1644L35.125 47.3225Z" fill="#093952"/>
<path d="M54.3774 50.7438L43.8056 42.2756C42.4987 41.245 40.6181 41.3725 39.4812 42.5944L37.6431 44.5918L53.3787 57.2037L54.8874 55.2063C55.9818 53.825 55.7481 51.8381 54.3774 50.7438Z" fill="#093952"/>
<path d="M62.75 0.0625H33C31.2363 0.0625 29.8125 1.48625 29.8125 3.25V22.375C29.8125 24.1388 31.2363 25.5625 33 25.5625H34.0625V29.8125L40.4375 25.5625H62.75C64.5137 25.5625 65.9375 24.1388 65.9375 22.375V3.25C65.9375 1.48625 64.5137 0.0625 62.75 0.0625ZM40.4375 9.625C40.4375 10.2117 39.9622 10.6875 39.375 10.6875H36.1875V12.8125H39.375C39.9622 12.8125 40.4375 13.2883 40.4375 13.875C40.4375 14.4617 39.9622 14.9375 39.375 14.9375H35.125C34.5378 14.9375 34.0625 14.4617 34.0625 13.875V9.625C34.0625 9.03829 34.5378 8.5625 35.125 8.5625H38.3125V6.4375H35.125C34.5378 6.4375 34.0625 5.96171 34.0625 5.375C34.0625 4.78829 34.5378 4.3125 35.125 4.3125H39.375C39.9622 4.3125 40.4375 4.78829 40.4375 5.375V9.625ZM48.9375 9.625V13.875C48.9375 14.4617 48.4622 14.9375 47.875 14.9375C47.2878 14.9375 46.8125 14.4617 46.8125 13.875V10.6875H43.625C43.0378 10.6875 42.5625 10.2117 42.5625 9.625V5.375C42.5625 4.78829 43.0378 4.3125 43.625 4.3125C44.2122 4.3125 44.6875 4.78829 44.6875 5.375V8.5625H46.8125V5.375C46.8125 4.78829 47.2878 4.3125 47.875 4.3125C48.4622 4.3125 48.9375 4.78829 48.9375 5.375V9.625ZM54.2178 7.75787L51.0303 20.5079C50.9099 20.9904 50.4773 21.3125 50.001 21.3125C49.9158 21.3125 49.8287 21.3026 49.7426 21.2808C49.173 21.1387 48.8264 20.5617 48.9696 19.9921L52.1571 7.24213C52.2982 6.67306 52.8751 6.32339 53.4447 6.46916C54.0143 6.61132 54.361 7.18826 54.2178 7.75787ZM61.62 11.0605L58.4325 19.5605C58.2727 19.987 57.8671 20.2505 57.4375 20.2505C57.313 20.2505 57.1874 20.2282 57.0639 20.1825C56.515 19.9761 56.237 19.3639 56.4424 18.8145L59.0914 11.75H56.375C55.7878 11.75 55.3125 11.2742 55.3125 10.6875C55.3125 10.1008 55.7878 9.625 56.375 9.625H60.625C60.9736 9.625 61.2995 9.79564 61.4987 10.0821C61.6968 10.369 61.7424 10.7343 61.62 11.0605Z" fill="#093952"/>
</svg>
