<svg width="68" height="68" viewBox="0 0 68 68" fill="none" xmlns="http://www.w3.org/2000/svg">
<g clip-path="url(#clip0_1_8276)">
<path d="M16.7031 57.212C10.9896 57.212 4.91724 59.1025 4.91724 62.6058C4.91724 66.1091 10.9897 67.9997 16.7031 67.9997C22.4166 67.9997 28.4891 66.1091 28.4891 62.6058C28.4891 59.1025 22.4166 57.212 16.7031 57.212Z" fill="#093952"/>
<path d="M16.7034 20.4401C7.5101 20.4401 0.0307617 27.9195 0.0307617 37.1127C0.0307617 42.8206 2.74598 48.9576 8.10111 55.3533C12.0438 60.0622 15.9295 63.0882 16.0931 63.2148C16.2727 63.3538 16.4881 63.4233 16.7034 63.4233C16.9187 63.4233 17.134 63.3538 17.3137 63.2148C17.4771 63.0882 21.3631 60.0622 25.3056 55.3533C30.6608 48.9576 33.376 42.8205 33.376 37.1127C33.376 27.9195 25.8967 20.4401 16.7034 20.4401ZM22.9555 37.1127C22.9555 40.5656 20.1564 43.3648 16.7034 43.3648C13.2505 43.3648 10.4514 40.5656 10.4514 37.1127C10.4514 33.6599 13.2505 30.8606 16.7034 30.8606C20.1564 30.8606 22.9555 33.6599 22.9555 37.1127Z" fill="#093952"/>
<path d="M61.1635 29.3254C59.4808 28.6397 57.2646 28.262 54.9238 28.262C52.5831 28.262 50.367 28.6397 48.6842 29.3254C46.7176 30.1268 45.6345 31.3034 45.6345 32.6383C45.6345 33.9732 46.7175 35.1499 48.6842 35.9511C50.3669 36.6369 52.5829 37.0146 54.9238 37.0146C57.2646 37.0146 59.4806 36.6369 61.1635 35.9511C63.1299 35.1499 64.2129 33.9732 64.2129 32.6383C64.2129 31.3034 63.1299 30.1269 61.1635 29.3254Z" fill="#093952"/>
<path d="M16.7031 65.5092C11.7086 65.5092 6.44006 64.0646 5.19309 61.3605C5.01366 61.7497 4.91724 62.165 4.91724 62.6059C4.91724 66.1094 10.9897 67.9998 16.7031 67.9998C22.4166 67.9998 28.4891 66.1092 28.4891 62.6059C28.4891 62.1651 28.3926 61.7498 28.2132 61.3605C26.9664 64.0645 21.6978 65.5092 16.7031 65.5092Z" fill="#093952"/>
<path d="M61.1634 33.4604C59.4806 34.1461 57.2646 34.5238 54.9237 34.5238C52.5829 34.5238 50.3669 34.1461 48.684 33.4604C47.3576 32.92 46.4351 32.2082 45.9739 31.3929C45.7513 31.7864 45.6345 32.2036 45.6345 32.6383C45.6345 33.9732 46.7175 35.1499 48.6842 35.9511C50.3669 36.6369 52.5829 37.0146 54.9238 37.0146C57.2646 37.0146 59.4806 36.6369 61.1635 35.9511C63.1299 35.1499 64.2129 33.9732 64.2129 32.6383C64.2129 32.2038 64.0961 31.7864 63.8735 31.3929C63.4123 32.2082 62.4896 32.92 61.1634 33.4604Z" fill="#093952"/>
<path d="M54.924 0C47.731 0 41.8792 5.85198 41.8792 13.0448C41.8792 17.4874 43.9842 22.2539 48.1357 27.2124C51.1817 30.8504 54.1874 33.1909 54.3139 33.2888C54.4935 33.4278 54.7088 33.4973 54.9241 33.4973C55.1394 33.4973 55.3546 33.4278 55.5344 33.2888C55.6608 33.1909 58.6667 30.8504 61.7126 27.2124C65.864 22.2541 67.969 17.4876 67.969 13.0448C67.9687 5.85198 62.1169 0 54.924 0ZM59.7293 13.0448C59.7293 15.6987 57.5779 17.8501 54.924 17.8501C52.2701 17.8501 50.1187 15.6987 50.1187 13.0448C50.1187 10.391 52.2701 8.23969 54.924 8.23969C57.5779 8.23969 59.7293 10.391 59.7293 13.0448Z" fill="#093952"/>
<path d="M16.7035 20.4401C16.0686 20.4401 15.4422 20.477 14.8256 20.5465C23.1379 21.4826 29.6201 28.5543 29.6201 37.1127C29.6201 42.8206 26.9049 48.9576 21.5497 55.3533C18.9198 58.4944 16.3169 60.8847 14.8254 62.1672C15.57 62.8073 16.0388 63.1726 16.0933 63.2146C16.2728 63.3537 16.4883 63.4232 16.7035 63.4232C16.9188 63.4232 17.1341 63.3537 17.3138 63.2146C17.4773 63.0881 21.3633 60.0621 25.3058 55.3532C30.6609 48.9575 33.3762 42.8204 33.3762 37.1126C33.3762 27.9195 25.8968 20.4401 16.7035 20.4401Z" fill="#093952"/>
<path d="M54.9242 0C54.2866 0 53.6596 0.04675 53.0461 0.135734C59.3522 1.04895 64.213 6.48962 64.213 13.0448C64.213 17.4874 62.1079 22.2539 57.9566 27.2124C56.0845 29.4484 54.2288 31.1929 53.0461 32.2292C53.7876 32.8789 54.2652 33.2511 54.314 33.2887C54.4937 33.4277 54.709 33.4972 54.9242 33.4972C55.1395 33.4972 55.3547 33.4277 55.5345 33.2887C55.661 33.1908 58.6668 30.8502 61.7127 27.2122C65.8641 22.2539 67.9691 17.4874 67.9691 13.0447C67.969 5.85198 62.1171 0 54.9242 0Z" fill="#093952"/>
<path d="M32.1706 63.6043C31.6221 63.6043 31.1761 63.161 31.1736 62.6116C31.1711 62.0609 31.6155 61.6124 32.1662 61.61L33.4832 61.604C33.4848 61.604 33.4863 61.604 33.4879 61.604C34.0364 61.604 34.4825 62.0473 34.4849 62.5966C34.4874 63.1474 34.043 63.5959 33.4922 63.5983L32.1753 63.6043C32.1737 63.6043 32.1721 63.6043 32.1706 63.6043ZM37.4386 63.5804C36.8901 63.5804 36.4441 63.1371 36.4416 62.5877C36.4391 62.037 36.8835 61.5885 37.4342 61.5861L38.7512 61.5801C38.7528 61.5801 38.7543 61.5801 38.7559 61.5801C39.3044 61.5801 39.7504 62.0234 39.7529 62.5727C39.7554 63.1235 39.311 63.572 38.7602 63.5744L37.4433 63.5804C37.4417 63.5804 37.4401 63.5804 37.4386 63.5804ZM42.7068 63.5563C42.1583 63.5563 41.7123 63.113 41.7097 62.5637C41.7072 62.0131 42.1516 61.5644 42.7024 61.562L44.0192 61.5561C44.0208 61.5561 44.0223 61.5561 44.0239 61.5561C44.5724 61.5561 45.0184 61.9994 45.0209 62.5487C45.0233 63.0995 44.579 63.548 44.0283 63.5504L42.7114 63.5563C42.7098 63.5563 42.7082 63.5563 42.7068 63.5563ZM47.9749 63.5324C47.4264 63.5324 46.9804 63.0891 46.9779 62.5398C46.9754 61.9892 47.4198 61.5405 47.9705 61.5381L49.2875 61.5321C49.2891 61.5321 49.2905 61.5321 49.2921 61.5321C49.8407 61.5321 50.2866 61.9755 50.2892 62.5248C50.2916 63.0754 49.8473 63.5241 49.2965 63.5265L47.9796 63.5324C47.978 63.5324 47.9764 63.5324 47.9749 63.5324ZM53.2429 63.5087C52.6944 63.5087 52.2484 63.0653 52.2459 62.516C52.2434 61.9653 52.6878 61.5167 53.2385 61.5143L54.5555 61.5084C54.5571 61.5084 54.5586 61.5084 54.5602 61.5084C55.1087 61.5084 55.5546 61.9517 55.5572 62.501C55.5597 63.0518 55.1153 63.5003 54.5645 63.5027L53.2476 63.5087C53.246 63.5087 53.2445 63.5087 53.2429 63.5087ZM58.5111 63.4848C57.9627 63.4848 57.5167 63.0416 57.514 62.4924C57.5112 61.9417 57.9555 61.4931 58.5064 61.4904L58.693 61.4895C59.0266 61.4881 59.3609 61.4644 59.6875 61.4193C60.232 61.3433 60.7362 61.725 60.8118 62.2706C60.8871 62.816 60.506 63.3194 59.9604 63.3948C59.5467 63.452 59.1233 63.482 58.7022 63.4838L58.516 63.4848C58.5144 63.4848 58.5126 63.4848 58.5111 63.4848ZM63.4717 61.9825C63.1558 61.9825 62.845 61.8327 62.6514 61.5534C62.3378 61.1008 62.4501 60.4796 62.9028 60.1656C63.2205 59.9456 63.5231 59.6987 63.803 59.4321C64.2014 59.0521 64.8327 59.0674 65.2128 59.4661C65.5926 59.8647 65.5775 60.4959 65.1788 60.8759C64.8246 61.2135 64.4411 61.5259 64.0392 61.8045C63.8657 61.9249 63.6678 61.9825 63.4717 61.9825ZM66.6252 57.8706C66.5141 57.8706 66.4009 57.8519 66.2903 57.8125C65.7715 57.6275 65.5011 57.057 65.6859 56.5384C65.8155 56.1752 65.9172 55.7986 65.9887 55.4191C66.0907 54.8778 66.6126 54.5219 67.153 54.6238C67.6941 54.7256 68.0503 55.2471 67.9483 55.7881C67.8576 56.2696 67.7285 56.7474 67.5641 57.2082C67.4189 57.6162 67.0348 57.8706 66.6252 57.8706ZM66.7866 52.691C66.3532 52.691 65.9541 52.4061 65.8288 51.9686C65.7224 51.598 65.5856 51.2325 65.4222 50.8826C65.1894 50.3835 65.4052 49.7901 65.9042 49.5572C66.4038 49.3246 66.9967 49.5402 67.2295 50.0392C67.437 50.4836 67.6104 50.9475 67.7456 51.4183C67.8974 51.9476 67.5917 52.5 67.0623 52.6519C66.9703 52.6783 66.8777 52.691 66.7866 52.691ZM63.8946 48.3893C63.6781 48.3893 63.4604 48.3193 63.2773 48.1748C62.9741 47.9352 62.6496 47.7179 62.3136 47.5285C61.8338 47.2584 61.6639 46.6501 61.9342 46.1704C62.2044 45.6905 62.8129 45.5205 63.2923 45.7909C63.7181 46.0308 64.1289 46.3061 64.5131 46.6093C64.9453 46.9505 65.0191 47.5777 64.6778 48.0098C64.4811 48.2593 64.1893 48.3893 63.8946 48.3893ZM59.0406 46.582C59.0257 46.582 59.0107 46.5817 58.9957 46.5809C58.8843 46.576 58.772 46.5735 58.6594 46.5735H57.7229C57.1722 46.5735 56.7258 46.1272 56.7258 45.5763C56.7258 45.0257 57.172 44.5792 57.7229 44.5792H58.6594C58.8001 44.5792 58.9428 44.5822 59.0839 44.5886C59.634 44.6129 60.0603 45.0787 60.0357 45.6288C60.0124 46.1641 59.5709 46.582 59.0406 46.582ZM53.7719 46.5736H52.4549C51.9042 46.5736 51.4578 46.1274 51.4578 45.5765C51.4578 45.0258 51.9042 44.5793 52.4549 44.5793H53.7719C54.3227 44.5793 54.7691 45.0258 54.7691 45.5765C54.7691 46.1272 54.3227 46.5736 53.7719 46.5736ZM48.5038 46.5736H47.1868C46.636 46.5736 46.1896 46.1274 46.1896 45.5765C46.1896 45.0258 46.636 44.5793 47.1868 44.5793H48.5038C49.0545 44.5793 49.5009 45.0258 49.5009 45.5765C49.5009 46.1272 49.0545 46.5736 48.5038 46.5736ZM43.2355 46.5736H41.9185C41.3678 46.5736 40.9214 46.1274 40.9214 45.5765C40.9214 45.0258 41.3678 44.5793 41.9185 44.5793H43.2355C43.7863 44.5793 44.2326 45.0258 44.2326 45.5765C44.2326 46.1272 43.7864 46.5736 43.2355 46.5736ZM38.1555 45.5818C37.9737 45.5818 37.7896 45.5321 37.6246 45.428C37.197 45.1584 36.7954 44.8435 36.4304 44.4927C36.0336 44.111 36.0213 43.4797 36.4031 43.0829C36.7845 42.6863 37.4159 42.6737 37.8129 43.0555C38.0805 43.3128 38.3751 43.5438 38.6885 43.7413C39.1544 44.035 39.2939 44.6509 39 45.1167C38.8102 45.4171 38.4864 45.5818 38.1555 45.5818ZM35.2574 41.3575C34.7897 41.3575 34.3725 41.0271 34.2797 40.5511C34.1883 40.082 34.142 39.6002 34.142 39.1186L34.1424 39.04C34.1487 38.4933 34.5939 38.0544 35.1392 38.0544C35.1432 38.0544 35.1472 38.0544 35.1511 38.0545C35.7018 38.0609 36.143 38.5124 36.1365 39.0631L36.1363 39.1184C36.1363 39.4723 36.1703 39.8259 36.2372 40.1695C36.3425 40.7101 35.9898 41.2336 35.4492 41.3389C35.3848 41.3516 35.3205 41.3575 35.2574 41.3575ZM36.3472 36.353C36.1456 36.353 35.9424 36.2922 35.7663 36.1658C35.3189 35.8445 35.2168 35.2215 35.5379 34.7741C35.8331 34.3632 36.1712 33.9811 36.5429 33.6383C36.948 33.265 37.5786 33.2906 37.9519 33.6952C38.3254 34.1 38.2999 34.7308 37.8951 35.1042C37.6224 35.3557 37.3743 35.6361 37.1579 35.9376C36.963 36.2087 36.6574 36.353 36.3472 36.353ZM40.7369 33.7143C40.2447 33.7143 39.8165 33.3499 39.7497 32.8485C39.677 32.3026 40.0607 31.8011 40.6066 31.7285C40.9325 31.6852 41.2656 31.6631 41.5971 31.6631H42.0524C42.6032 31.6631 43.0496 32.1095 43.0496 32.6603C43.0496 33.2111 42.6032 33.6575 42.0524 33.6575H41.5971C41.3533 33.6575 41.1085 33.6735 40.8696 33.7053C40.8249 33.7115 40.7807 33.7143 40.7369 33.7143Z" fill="#093952"/>
</g>
<defs>
<clipPath id="clip0_1_8276">
<rect width="68" height="68" fill="white"/>
</clipPath>
</defs>
</svg>
