<svg width="17" height="17" viewBox="0 0 17 17" fill="none" xmlns="http://www.w3.org/2000/svg">
<path d="M10.8718 11.2735L10.5031 11.6624C10.5031 11.6624 9.6256 12.5852 7.23134 10.0647C4.83708 7.54426 5.71457 6.62146 5.71457 6.62146L5.94711 6.37597C6.51914 5.77319 6.57342 4.80583 6.07351 4.09935L5.0526 2.65479C4.43358 1.77979 3.23847 1.66475 2.52951 2.41093L1.25825 3.74854C0.907412 4.1188 0.672442 4.59762 0.7008 5.12991C0.773722 6.49102 1.35547 9.41821 4.59968 12.8348C8.04077 16.4563 11.2696 16.6005 12.5895 16.4701C13.0075 16.4296 13.3705 16.2035 13.663 15.8956L14.8136 14.6836C15.5914 13.8653 15.3726 12.4637 14.3777 11.8917L12.8301 11.0005C12.177 10.6254 11.3822 10.7356 10.8718 11.2727V11.2735ZM9.01144 1.01012C9.03749 0.851079 9.12557 0.708869 9.25636 0.614696C9.38715 0.520523 9.54995 0.48208 9.70906 0.507803C9.72931 0.511854 9.79575 0.524007 9.83059 0.532109C9.89946 0.546692 9.99588 0.570998 10.1158 0.605026C10.3564 0.675512 10.6927 0.791368 11.0962 0.97609C11.9032 1.34634 12.9768 1.99368 14.0916 3.10769C15.2065 4.2225 15.8539 5.29681 16.2242 6.10375C16.4089 6.50722 16.524 6.84264 16.5945 7.08407C16.63 7.20538 16.6605 7.32809 16.686 7.4519L16.6901 7.47701C16.7168 7.63746 16.6793 7.80196 16.5858 7.93503C16.4923 8.06811 16.3502 8.15909 16.1902 8.18835C16.0315 8.21411 15.8691 8.17598 15.7385 8.08229C15.6079 7.9886 15.5198 7.847 15.4934 7.68847C15.4768 7.59893 15.4549 7.51046 15.4277 7.42354C15.3449 7.1453 15.242 6.87344 15.1198 6.61011C14.8038 5.92146 14.2351 4.9703 13.232 3.96729C12.2297 2.96428 11.2777 2.39634 10.589 2.08037C10.3259 1.95821 10.0543 1.85532 9.77631 1.7725C9.69106 1.74845 9.60513 1.72684 9.51865 1.70769C9.35934 1.68138 9.21677 1.59348 9.12173 1.46297C9.02668 1.33245 8.98677 1.1698 9.01063 1.01012H9.01144Z" fill="#F09A4A"/>
<path fill-rule="evenodd" clip-rule="evenodd" d="M9.19455 3.80527C9.2164 3.7285 9.25316 3.65678 9.30273 3.59421C9.35231 3.53165 9.41372 3.47946 9.48348 3.44064C9.55323 3.40182 9.62994 3.37712 9.70924 3.36795C9.78854 3.35879 9.86887 3.36533 9.94564 3.38722L9.9505 3.38884L9.95699 3.39046L9.97319 3.39532L10.0186 3.41152C10.2339 3.49447 10.4418 3.59557 10.64 3.71372C11.0362 3.94868 11.5775 4.33756 12.2135 4.97437C12.8495 5.61036 13.2393 6.15157 13.4742 6.54775C13.5917 6.74624 13.6695 6.90747 13.7197 7.02576C13.7467 7.08763 13.771 7.15061 13.7927 7.21453L13.7967 7.23073L13.7991 7.23722V7.23965L13.8 7.24046C13.8 7.24046 13.8 7.24208 13.2166 7.40897L13.8 7.24208C13.8411 7.39538 13.8206 7.5587 13.7429 7.6971C13.6652 7.83551 13.5364 7.938 13.3841 7.98267C13.2317 8.02734 13.068 8.01063 12.9278 7.93612C12.7876 7.86161 12.6822 7.73522 12.634 7.58397L12.6316 7.57587C12.5746 7.43478 12.5069 7.29827 12.429 7.16754C12.2475 6.8621 11.921 6.40029 11.3538 5.83317C10.7867 5.26604 10.3256 4.94034 10.0202 4.75967C9.88946 4.68178 9.75294 4.61407 9.61182 4.55712L9.60372 4.55388C9.45067 4.50787 9.3219 4.40342 9.24531 4.26315C9.16873 4.12288 9.15049 3.95889 9.19455 3.80527Z" fill="#F09A4A"/>
</svg>
