<svg width="64" height="68" viewBox="0 0 64 68" fill="none" xmlns="http://www.w3.org/2000/svg">
<path d="M21.9141 32.1406H13.9453C12.8442 32.1406 11.9531 33.0317 11.9531 34.1328V40.1094H9.96094V68H25.8984V40.1094H23.9062V34.1328C23.9062 33.0317 23.0152 32.1406 21.9141 32.1406ZM15.9375 36.125H19.9219V40.1094H15.9375V36.125Z" fill="#093952"/>
<path d="M51.7969 0H39.8438C38.7426 0 37.8516 0.891039 37.8516 1.99219V20.1875H29.8828C28.7817 20.1875 27.8906 21.0785 27.8906 22.1797V36.125H33.8672C37.1628 36.125 39.8438 38.806 39.8438 42.1016V52.0625H63.75V22.1797C63.75 21.0785 62.859 20.1875 61.7578 20.1875H53.7891V1.99219C53.7891 0.891039 52.898 0 51.7969 0ZM41.8359 3.98438H49.8047V20.1875H41.8359V3.98438ZM55.7812 30.1484C55.7812 31.2496 54.8902 32.1406 53.7891 32.1406H51.7969V34.1328C51.7969 35.234 50.9058 36.125 49.8047 36.125C48.7035 36.125 47.8125 35.234 47.8125 34.1328V32.1406H37.8516C36.7504 32.1406 35.8594 31.2496 35.8594 30.1484C35.8594 29.0473 36.7504 28.1562 37.8516 28.1562H53.7891C54.8902 28.1562 55.7812 29.0473 55.7812 30.1484Z" fill="#093952"/>
<path d="M57.7734 68C58.8746 68 59.7656 67.109 59.7656 66.0078V64.0156H61.7578C62.859 64.0156 63.75 63.1246 63.75 62.0234V56.0469H39.8438V64.0156H55.7812V66.0078C55.7812 67.109 56.6723 68 57.7734 68Z" fill="#093952"/>
<path d="M5.97656 68V40.1094H1.99219C0.891039 40.1094 0 41.0004 0 42.1016V66.0078C0 67.109 0.891039 68 1.99219 68H5.97656Z" fill="#093952"/>
<path d="M29.8828 40.1094V68H33.8672C34.9683 68 35.8594 67.109 35.8594 66.0078V42.1016C35.8594 41.0004 34.9683 40.1094 33.8672 40.1094H29.8828Z" fill="#093952"/>
</svg>
