<svg width="58" height="68" viewBox="0 0 58 68" fill="none" xmlns="http://www.w3.org/2000/svg">
<path d="M6.01189 16.8911C6.4812 16.4228 6.9646 15.9688 7.46141 15.5298L2.81735 10.8857L0 13.7031L4.64445 18.3475C5.08538 17.8483 5.54141 17.3626 6.01189 16.8911ZM26.8397 7.50112C27.5007 7.46114 28.1647 7.43856 28.8323 7.43856C29.4995 7.43856 30.1633 7.46101 30.8241 7.50112V3.98438H40.2563V0H17.4075V3.98438H26.8397V7.50112ZM53.0141 18.3407L57.6518 13.7031L54.8344 10.8857L50.1964 15.5238C50.6955 15.9647 51.1812 16.4207 51.6526 16.8911C52.121 17.3605 52.575 17.8439 53.0141 18.3407ZM28.8323 11.4229C13.209 11.4229 0.543734 24.0881 0.543734 39.7115C0.543734 55.3347 13.209 68 28.8323 68C44.4555 68 57.1208 55.3347 57.1208 39.7115C57.1208 24.0882 44.4555 11.4229 28.8323 11.4229ZM23.8398 51.026H19.8555V33.1801L16.6259 34.2899L15.3309 30.5219L23.8397 27.5978L23.8398 51.026ZM35.3779 38.607C33.7822 38.607 32.9783 40.2629 32.9783 42.6336V51.0259H28.9939V27.5752H32.9783V35.236C33.7949 34.8388 34.7075 34.6228 35.6884 34.6228C37.4263 34.6228 38.8255 35.1434 39.8469 36.1702C41.1747 37.5048 41.7864 39.5593 41.7715 42.6351L41.8022 51.0189L37.8178 51.0333L37.7871 42.6234C37.7871 42.6234 37.7243 38.607 35.3779 38.607Z" fill="#093952"/>
</svg>
