<svg width="68" height="68" viewBox="0 0 68 68" fill="none" xmlns="http://www.w3.org/2000/svg">
<path d="M46.1516 30.3015L53.7344 16.9559C54.155 16.2157 54.155 15.3087 53.7344 14.5683L46.1516 1.22267C45.7221 0.466835 44.9198 0 44.0507 0H5.41639C4.08189 0 3 1.08189 3 2.41639V29.1078C3 30.4423 4.08189 31.5242 5.41639 31.5242H44.0505C44.9198 31.5243 45.7221 31.0573 46.1516 30.3015ZM40.5234 15.7622C40.5234 13.8141 42.1026 12.2349 44.0507 12.2349C45.9988 12.2349 47.5779 13.8141 47.5779 15.7622C47.5779 17.7102 45.9988 19.2894 44.0507 19.2894C42.1027 19.2893 40.5234 17.7101 40.5234 15.7622Z" fill="#093952"/>
<path d="M44.657 15.7621C44.657 14.7573 45.4715 13.9429 46.4762 13.9429H62.6476C63.6525 13.9429 64.4669 14.7574 64.4669 15.7621C64.4669 16.767 63.6523 17.5814 62.6476 17.5814H46.4764C45.4715 17.5814 44.657 16.767 44.657 15.7621Z" fill="#093952"/>
<path d="M3 28.0131V29.1077C3 30.4422 4.08189 31.5242 5.41639 31.5242H44.0505C44.9198 31.5242 45.7221 31.0573 46.1515 30.3014L47.4519 28.0128H3V28.0131Z" fill="#093952"/>
<path d="M61.7969 37.6234L57.7218 22.8248C57.4958 22.004 56.8545 21.3625 56.0336 21.1366L41.2352 17.0616C40.3971 16.8308 39.4996 17.068 38.885 17.6827L11.5664 45.0012C10.6227 45.9449 10.6227 47.475 11.5664 48.4186L30.4399 67.2923C31.3835 68.2359 32.9137 68.2359 33.8573 67.2923L61.1759 39.9737C61.7905 39.359 62.0277 38.4615 61.7969 37.6234ZM47.5362 31.3222C46.1586 29.9447 46.1586 27.7116 47.5362 26.3341C48.9137 24.9565 51.1468 24.9565 52.5243 26.3341C53.9019 27.7116 53.9019 29.9447 52.5243 31.3222C51.1469 32.6996 48.9137 32.6996 47.5362 31.3222Z" fill="#093952"/>
<path d="M50.4592 28.3994C49.7486 27.6888 49.7486 26.537 50.4592 25.8264L61.894 14.3916C62.6046 13.681 63.7565 13.681 64.467 14.3916C65.1776 15.1021 65.1776 16.254 64.467 16.9645L53.0322 28.3994C52.3217 29.1097 51.1697 29.1097 50.4592 28.3994Z" fill="#093952"/>
<path d="M61.7971 37.6234L61.0479 34.9026L29.5493 66.4011L30.4404 67.2922C31.384 68.2358 32.9141 68.2358 33.8577 67.2922L61.1763 39.9736C61.7907 39.359 62.0279 38.4616 61.7971 37.6234Z" fill="#093952"/>
<path d="M27.2752 50.9264C28.5109 49.6854 30.0108 49.2504 31.4868 50.7202L31.6655 50.8981C33.2074 52.4335 32.8074 53.9821 31.5999 55.195C30.1675 56.6334 28.5632 56.59 27.6888 55.7194C27.2564 55.2889 27.3588 54.9414 27.7427 54.556C28.2576 54.039 28.5581 54.1509 28.8213 54.4128C29.282 54.8717 29.9572 54.7012 30.5 54.1558C31.118 53.5353 31.1633 52.8317 30.4488 52.1202L30.2701 51.9424C29.5556 51.2309 28.8428 51.27 28.2344 51.881L26.8488 53.2725C26.4649 53.6579 26.1738 53.5742 25.8824 53.2841C25.8071 53.2091 25.7319 53.1155 25.6472 53.031L23.4181 50.3247C23.2017 50.0717 23.1262 49.8469 23.2667 49.7058L26.15 46.8101C26.3933 46.5656 26.7878 46.7149 27.051 46.9771C27.3236 47.2485 27.465 47.633 27.2218 47.8775L25.1154 49.993L26.5544 51.6503L27.2752 50.9264Z" fill="white"/>
<path d="M32.4519 50.0333L29.8287 47.4215C28.2586 45.8581 28.6306 44.3188 29.8663 43.0778C31.102 41.8368 32.649 41.4488 34.219 43.0123L36.8421 45.6241C38.4121 47.1874 38.0308 48.7361 36.7953 49.9771C35.5597 51.218 34.0219 51.5966 32.4519 50.0333ZM33.0023 44.2343C32.2596 43.4948 31.5467 43.534 30.9381 44.1451C30.3203 44.7656 30.3031 45.4598 31.0458 46.1994L33.669 48.8112C34.4117 49.5507 35.1059 49.5305 35.7237 48.91C36.3323 48.2988 36.3681 47.5857 35.6255 46.8462L33.0023 44.2343Z" fill="white"/>
<path d="M36.9919 41.0734L35.6288 39.7161C34.7449 38.8361 34.9963 37.9257 35.7547 37.1641C36.5036 36.412 37.413 36.1567 38.2968 37.0366L39.66 38.3939C40.5439 39.274 40.2926 40.1847 39.5435 40.9368C38.7852 41.6983 37.8758 41.9533 36.9919 41.0734ZM37.501 37.8357C37.153 37.4895 36.7873 37.537 36.4596 37.8663C36.1321 38.1955 36.0953 38.5519 36.4432 38.8982L37.8064 40.2556C38.1543 40.6018 38.5105 40.5637 38.8383 40.2346C39.166 39.9055 39.212 39.5396 38.8642 39.1932L37.501 37.8357ZM40.0421 32.9518C40.0987 33.008 40.1457 33.0736 40.174 33.158L43.6295 43.3389C43.7049 43.5263 43.6304 43.7517 43.4713 43.9115C43.2093 44.1747 42.815 44.1381 42.6177 43.9416C42.5613 43.8855 42.5236 43.8104 42.4954 43.745L39.0115 33.5359C38.9455 33.3392 39.0106 33.142 39.1511 33.001C39.3664 32.7846 39.7882 32.6992 40.0421 32.9518ZM44.3258 39.932L42.9625 38.5747C42.0787 37.6947 42.3299 36.7841 43.0883 36.0227C43.8372 35.2706 44.7467 35.0153 45.6306 35.8952L46.9939 37.2526C47.8869 38.1419 47.6261 39.0431 46.8772 39.7952C46.1191 40.5565 45.219 40.8214 44.3258 39.932ZM44.835 36.6942C44.4871 36.348 44.1214 36.3955 43.7937 36.7248C43.466 37.0537 43.4294 37.4103 43.7772 37.7567L45.1405 39.1141C45.4883 39.4604 45.8445 39.4222 46.1723 39.0932C46.5001 38.7641 46.5461 38.3982 46.1984 38.0517L44.835 36.6942Z" fill="white"/>
<path d="M14.1288 17.6541L14.1261 17.402C14.1163 16.4201 13.5032 16.1479 12.654 16.1564C12.2693 16.1601 12.1333 15.8298 12.1298 15.4849C12.1265 15.1532 12.2557 14.8073 12.6405 14.8033C13.3037 14.7966 13.8593 14.6317 13.8479 13.4908C13.8391 12.6152 13.385 12.3278 12.6686 12.3351C11.8063 12.3437 11.4914 12.7052 11.497 13.2357C11.501 13.6339 11.3178 13.9011 10.6811 13.9072C9.91159 13.915 9.79019 13.7306 9.78462 13.1734C9.77532 12.2314 10.4248 10.8581 12.6669 10.8356C14.2721 10.8196 15.4723 11.4179 15.4901 13.1822C15.5006 14.2305 15.1243 15.0832 14.4775 15.3948C15.2633 15.6923 15.8397 16.2836 15.8508 17.3849L15.8535 17.637C15.8749 19.7728 14.4502 20.5965 12.6989 20.6142C10.5232 20.6359 9.63414 19.3048 9.62338 18.2302C9.61807 17.6995 9.84212 17.5512 10.4391 17.5453C11.1422 17.538 11.3298 17.7222 11.334 18.1467C11.34 18.7439 11.8744 19.1101 12.7234 19.1016C13.7186 19.0913 14.1389 18.6624 14.1288 17.6541Z" fill="white"/>
<path d="M17.1394 17.5311L17.1023 13.8297C17.0801 11.6141 18.4251 10.778 20.1763 10.7603C21.9275 10.7426 23.3024 11.5516 23.3244 13.7672L23.3615 17.4685C23.3838 19.6841 22.0255 20.5203 20.2744 20.5379C18.5234 20.5556 17.1617 19.7468 17.1394 17.5311ZM21.5997 13.7847C21.5892 12.7367 21.0539 12.2643 20.1914 12.273C19.3159 12.2817 18.8164 12.7644 18.8269 13.8126L18.8639 17.5139C18.8744 18.5619 19.3835 19.0344 20.259 19.026C21.1214 19.0172 21.6472 18.5343 21.6367 17.4862L21.5997 13.7847Z" fill="white"/>
<path d="M26.6608 14.3309L26.6415 12.4071C26.6289 11.16 27.4469 10.6876 28.5215 10.6768C29.5828 10.6662 30.41 11.122 30.4225 12.3691L30.4418 14.2929C30.4544 15.5397 29.6364 16.0124 28.575 16.0232C27.5005 16.0339 26.6732 15.5777 26.6608 14.3309ZM29.2948 12.3804C29.2899 11.8898 28.9957 11.6672 28.5314 11.6717C28.0671 11.6762 27.7909 11.9047 27.7958 12.3954L27.815 14.3192C27.8199 14.8101 28.1008 15.0326 28.5652 15.0281C29.0295 15.0236 29.319 14.7952 29.3141 14.3042L29.2948 12.3804ZM34.5319 10.6826C34.5327 10.7623 34.5201 10.8419 34.4813 10.9221L29.8019 20.6016C29.7243 20.7881 29.513 20.8963 29.2875 20.8988C28.916 20.9026 28.6609 20.5997 28.658 20.3214C28.6572 20.2417 28.6831 20.1619 28.7087 20.0953L33.3877 10.3757C33.4787 10.1893 33.6635 10.0943 33.8625 10.0926C34.1676 10.0892 34.5283 10.3243 34.5319 10.6826ZM32.6882 18.6621L32.6688 16.7384C32.6562 15.4912 33.4743 15.0188 34.5487 15.0078C35.6102 14.9972 36.4375 15.4533 36.4498 16.7004L36.4692 18.6242C36.482 19.8844 35.6637 20.3437 34.6024 20.3544C33.5277 20.3651 32.7007 19.9224 32.6882 18.6621ZM35.3221 16.7118C35.3173 16.2209 35.023 15.9983 34.5588 16.0028C34.0945 16.0076 33.8183 16.2358 33.8231 16.7268L33.8424 18.6506C33.8474 19.1415 34.1283 19.3641 34.5924 19.3595C35.0568 19.3548 35.3464 19.1263 35.3415 18.6353L35.3221 16.7118Z" fill="white"/>
</svg>
