<svg width="68" height="68" viewBox="0 0 68 68" fill="none" xmlns="http://www.w3.org/2000/svg">
<path d="M49.1702 36.1203C51.0714 36.1203 52.9748 36.5419 54.6972 37.3443C54.8754 36.2406 54.9651 35.1207 54.9651 34.0007C54.9644 22.44 45.56 13.0356 34 13.0356C22.44 13.0356 13.0356 22.44 13.0356 34C13.0356 45.56 22.44 54.9644 34 54.9644C35.1207 54.9644 36.2413 54.8747 37.3443 54.6972C36.5521 52.9686 36.1203 51.0742 36.1203 49.1702C36.1203 41.9744 41.9744 36.1203 49.1702 36.1203ZM34 36.4297C33.6111 36.4297 33.248 36.329 32.9216 36.1658L26.095 41.6398C25.9067 41.7908 25.6816 41.8642 25.4572 41.8642C25.1587 41.8642 24.8622 41.7337 24.6609 41.4821C24.308 41.0428 24.3787 40.4009 24.818 40.048L31.6452 34.5733C31.5996 34.3883 31.569 34.1979 31.569 33.9994C31.569 33.0256 32.1484 32.1899 32.9766 31.8023V16.6145C32.9766 16.0508 33.4336 15.5945 33.9966 15.5945C34.5597 15.5945 35.0166 16.0508 35.0166 16.6145V31.7996C35.8483 32.1858 36.4297 33.0236 36.4297 33.9994C36.4304 35.3396 35.3403 36.4297 34 36.4297Z" fill="#093952"/>
<path d="M34.0001 7.81995C19.5643 7.81995 7.82007 19.5642 7.82007 33.9999C7.82007 48.4357 19.5643 60.1799 34.0001 60.1799C36.3427 60.1799 38.6547 59.8712 40.8973 59.2606C39.9569 58.484 39.1239 57.5687 38.4296 56.5657C36.9744 56.8513 35.4893 57.0043 34.0001 57.0043C21.3153 57.0043 10.9957 46.6847 10.9957 33.9999C10.9957 21.3152 21.3153 10.9955 34.0001 10.9955C46.6848 10.9955 57.0045 21.3152 57.0045 33.9999C57.0045 35.4885 56.8515 36.9736 56.5659 38.4295C57.5682 39.1237 58.4841 39.9574 59.2614 40.8972C59.8713 38.6545 60.1801 36.3432 60.1801 33.9999C60.1801 19.5642 48.4358 7.81995 34.0001 7.81995Z" fill="#093952"/>
<path d="M49.1708 38.1616C43.0671 38.1616 38.1222 43.1508 38.1643 49.2483C38.2058 55.1779 43.1705 60.18 49.1701 60.18C55.2412 60.18 60.18 55.2412 60.18 49.1701C60.18 43.1603 55.1133 38.1616 49.1708 38.1616ZM55.5254 46.7786L47.7292 54.7414C47.5293 54.9454 47.2648 55.0481 47.0002 55.0481C46.7452 55.0481 46.4903 54.9529 46.2924 54.7625L41.8411 50.471C41.4351 50.08 41.4236 49.434 41.8146 49.0287C42.2069 48.6227 42.8516 48.6125 43.2568 49.0022L46.9798 52.5912L54.0675 45.3513C54.4626 44.948 55.1086 44.9426 55.5105 45.3363C55.913 45.73 55.9191 46.376 55.5254 46.7786Z" fill="#093952"/>
</svg>
