<svg width="1920" height="992" viewBox="0 0 1920 992" fill="none" xmlns="http://www.w3.org/2000/svg">
<path d="M-31.4999 991.5C-31.4993 990.341 -31.4967 989.182 -31.492 988.023L-31.992 988.021C-31.9814 985.368 -31.9602 982.717 -31.9283 980.067L-31.4284 980.073C-31.3965 977.425 -31.3541 974.777 -31.3011 972.131L-31.801 972.121C-31.748 969.471 -31.6843 966.822 -31.6101 964.175L-31.1103 964.189C-31.036 961.539 -30.9512 958.89 -30.8557 956.243L-31.3554 956.225C-31.2599 953.576 -31.1539 950.929 -31.0372 948.283L-30.5377 948.305C-30.4211 945.659 -30.2939 943.014 -30.1562 940.371L-30.6555 940.345C-30.5175 937.696 -30.3689 935.049 -30.2098 932.403L-29.7107 932.433C-29.5516 929.789 -29.382 927.146 -29.2019 924.505L-29.7008 924.471C-29.5205 921.827 -29.3297 919.185 -29.1284 916.544L-28.6298 916.582C-28.4283 913.939 -28.2162 911.298 -27.9936 908.658L-28.4918 908.616C-28.2691 905.975 -28.0359 903.335 -27.7922 900.698L-27.2943 900.744C-27.0507 898.106 -26.7965 895.471 -26.5319 892.838L-27.0294 892.788C-26.7643 890.149 -26.4886 887.512 -26.2024 884.877L-25.7053 884.931C-25.4193 882.297 -25.1228 879.665 -24.8159 877.035L-25.3125 876.977C-25.0054 874.345 -24.6878 871.716 -24.3598 869.088L-23.8636 869.15C-23.5352 866.52 -23.1964 863.892 -22.8471 861.265L-23.3427 861.199C-22.9933 858.572 -22.6334 855.946 -22.2631 853.323L-21.768 853.393C-21.3978 850.771 -21.0173 848.151 -20.6263 845.534L-21.1208 845.46C-20.7291 842.837 -20.327 840.216 -19.9144 837.598L-19.4205 837.676C-19.0082 835.059 -18.5854 832.444 -18.1523 829.831L-18.6456 829.75C-18.2122 827.136 -17.7685 824.524 -17.3144 821.915L-16.8218 822.001C-16.3674 819.39 -15.9026 816.781 -15.4275 814.175L-15.9194 814.085C-15.444 811.478 -14.9582 808.872 -14.4621 806.27L-13.9709 806.363C-13.4751 803.762 -12.9689 801.163 -12.4524 798.567L-12.9428 798.469C-12.4255 795.869 -11.8979 793.271 -11.36 790.676L-10.8704 790.777C-10.3327 788.183 -9.7847 785.592 -9.2264 783.003L-9.71516 782.897C-9.15659 780.307 -8.58773 777.72 -8.00861 775.135L-7.52071 775.244C-6.94139 772.659 -6.35181 770.076 -5.75198 767.496L-6.239 767.383C-5.63877 764.801 -5.02828 762.222 -4.40756 759.646L-3.92146 759.763C-3.30106 757.188 -2.67042 754.616 -2.02959 752.047L-2.51472 751.926C-1.87314 749.354 -1.22134 746.785 -0.559343 744.219L-0.0751953 744.344C0.586597 741.779 1.25858 739.217 1.94073 736.658L1.45761 736.529C2.14011 733.968 2.83278 731.411 3.53561 728.857L4.01768 728.989C4.72051 726.435 5.4335 723.884 6.15661 721.336L5.67561 721.199C6.39922 718.649 7.13298 716.103 7.87685 713.559L8.35675 713.7C9.10024 711.158 9.85385 708.619 10.6175 706.083L10.1388 705.939C10.9032 703.401 11.6776 700.867 12.4622 698.336L12.9397 698.484C13.724 695.953 14.5184 693.426 15.3228 690.903L14.8464 690.751C15.6512 688.226 16.4661 685.705 17.2909 683.187L17.7661 683.342C18.5908 680.825 19.4255 678.311 20.2702 675.801L19.7963 675.642C20.6416 673.13 21.4969 670.621 22.3621 668.117L22.8347 668.28C23.6996 665.776 24.5744 663.276 25.4591 660.78L24.9879 660.613C25.8732 658.115 26.7686 655.621 27.6738 653.13L28.1437 653.301C29.0486 650.812 29.9635 648.326 30.8882 645.844L30.4197 645.669C31.3449 643.186 32.2801 640.707 33.2251 638.231L33.6922 638.409C34.6368 635.935 35.5913 633.464 36.5557 630.997L36.09 630.815C37.055 628.347 38.0298 625.883 39.0144 623.422L39.4786 623.608C40.4627 621.149 41.4567 618.694 42.4605 616.243L41.9978 616.053C43.0021 613.601 44.0162 611.153 45.0401 608.708L45.5013 608.902C46.5247 606.459 47.5579 604.02 48.6008 601.585L48.1412 601.388C49.1847 598.952 50.2379 596.52 51.3009 594.093L51.7589 594.293C52.8213 591.867 53.8935 589.445 54.9753 587.027L54.5189 586.823C55.6012 584.404 56.6932 581.99 57.7949 579.58L58.2497 579.788C59.3508 577.379 60.4617 574.974 61.5822 572.574L61.1291 572.362C62.2501 569.961 63.3807 567.564 64.5209 565.172L64.9723 565.387C66.1117 562.996 67.2608 560.61 68.4196 558.228L67.9699 558.01C69.1292 555.627 70.2982 553.248 71.4767 550.874L71.9245 551.097C73.1022 548.724 74.2895 546.357 75.4864 543.993L75.0404 543.768C76.2375 541.404 77.4442 539.045 78.6604 536.69L79.1047 536.92C80.3203 534.567 81.5454 532.218 82.7801 529.874L82.3377 529.641C83.5727 527.297 84.8173 524.957 86.0713 522.622L86.5118 522.858C87.7647 520.526 89.027 518.197 90.2989 515.874L89.8603 515.634C91.1327 513.31 92.4146 510.99 93.7059 508.675L94.1426 508.919C95.433 506.606 96.7328 504.298 98.042 501.995L97.6073 501.748C98.9165 499.444 100.235 497.146 101.563 494.853L101.996 495.104C103.323 492.812 104.66 490.525 106.006 488.243L105.575 487.989C106.921 485.706 108.277 483.429 109.642 481.157L110.07 481.414C111.434 479.144 112.807 476.88 114.188 474.621L113.762 474.36C115.145 472.099 116.536 469.844 117.938 467.594L118.362 467.858C119.762 465.61 121.172 463.367 122.59 461.129L122.168 460.861C123.586 458.624 125.014 456.392 126.45 454.165L126.87 454.436C128.306 452.211 129.751 449.991 131.205 447.777L130.787 447.502C132.242 445.287 133.706 443.077 135.179 440.872L135.594 441.15C137.065 438.949 138.545 436.753 140.034 434.563L139.62 434.282C141.11 432.091 142.609 429.905 144.116 427.725L144.528 428.01C146.034 425.831 147.55 423.658 149.075 421.49L148.666 421.202C150.19 419.036 151.723 416.876 153.265 414.721L153.671 415.012C155.212 412.859 156.762 410.711 158.321 408.569L157.917 408.275C159.477 406.131 161.046 403.994 162.623 401.862L163.025 402.16C164.6 400.032 166.183 397.911 167.775 395.795L167.376 395.494C168.969 393.377 170.571 391.267 172.182 389.161L172.579 389.465C174.189 387.361 175.808 385.263 177.436 383.171L177.041 382.864C178.667 380.774 180.302 378.69 181.945 376.612L182.338 376.922C183.98 374.846 185.632 372.775 187.292 370.71L186.902 370.397C188.563 368.331 190.233 366.272 191.911 364.218L192.298 364.535C193.973 362.486 195.657 360.442 197.349 358.405L196.965 358.086C198.658 356.049 200.359 354.017 202.069 351.992L202.451 352.315C204.161 350.291 205.878 348.273 207.605 346.261L207.226 345.936C208.95 343.926 210.684 341.923 212.426 339.926L212.802 340.255C214.543 338.26 216.291 336.271 218.049 334.289L217.675 333.957C219.433 331.974 221.2 329.997 222.975 328.027L223.347 328.361C225.118 326.395 226.898 324.435 228.687 322.481L228.318 322.143C230.107 320.19 231.904 318.243 233.709 316.303L234.075 316.643C235.88 314.704 237.692 312.771 239.514 310.845L239.15 310.501C240.97 308.577 242.798 306.659 244.634 304.747L244.995 305.094C246.828 303.185 248.67 301.283 250.521 299.388L250.163 299.038C252.014 297.142 253.874 295.253 255.742 293.37L256.097 293.722C257.03 292.781 257.966 291.841 258.904 290.904C259.841 289.966 260.781 289.03 261.722 288.097L261.37 287.742C263.252 285.874 265.142 284.014 267.038 282.163L267.388 282.521C269.283 280.671 271.185 278.828 273.094 276.995L272.747 276.634C274.659 274.798 276.577 272.97 278.501 271.15L278.845 271.514C280.771 269.692 282.704 267.88 284.643 266.075L284.303 265.709C286.243 263.904 288.19 262.107 290.143 260.318L290.481 260.687C292.435 258.898 294.395 257.118 296.361 255.346L296.027 254.975C297.997 253.2 299.974 251.433 301.957 249.675L302.289 250.049C304.271 248.291 306.26 246.543 308.255 244.802L307.926 244.426C309.923 242.684 311.926 240.95 313.936 239.226L314.261 239.605C316.273 237.878 318.291 236.16 320.315 234.451L319.992 234.069C322.017 232.359 324.049 230.658 326.086 228.965L326.406 229.349C328.443 227.657 330.486 225.973 332.535 224.298L332.218 223.911C334.272 222.233 336.332 220.563 338.397 218.902L338.711 219.292C340.775 217.631 342.846 215.98 344.923 214.337L344.612 213.945C346.69 212.302 348.774 210.667 350.864 209.041L351.171 209.435C353.263 207.808 355.362 206.189 357.466 204.579L357.162 204.182C359.267 202.571 361.378 200.969 363.494 199.376L363.795 199.775C365.911 198.183 368.033 196.6 370.16 195.025L369.862 194.623C371.994 193.045 374.132 191.477 376.275 189.917L376.569 190.321C378.711 188.762 380.859 187.212 383.012 185.671L382.722 185.265C384.876 183.723 387.036 182.19 389.202 180.666L389.49 181.075C391.658 179.55 393.831 178.034 396.01 176.527L395.725 176.116C397.905 174.608 400.091 173.11 402.282 171.62L402.563 172.034C404.754 170.545 406.949 169.065 409.15 167.594L408.873 167.178C411.077 165.706 413.287 164.242 415.502 162.787L415.777 163.205C417.991 161.751 420.211 160.306 422.437 158.87L422.166 158.45C424.392 157.013 426.624 155.586 428.861 154.168L429.129 154.59C431.367 153.171 433.61 151.762 435.859 150.362L435.594 149.937C437.844 148.536 440.1 147.144 442.36 145.762L442.621 146.188C444.88 144.806 447.145 143.434 449.414 142.07L449.157 141.642C451.429 140.277 453.707 138.921 455.989 137.575L456.243 138.005C458.525 136.659 460.812 135.323 463.104 133.995L462.854 133.563C465.147 132.235 467.445 130.916 469.748 129.607L469.995 130.042C472.298 128.733 474.606 127.433 476.919 126.142L476.676 125.706C478.99 124.414 481.31 123.132 483.635 121.86L483.875 122.299C486.198 121.027 488.526 119.764 490.859 118.512L490.622 118.071C492.957 116.817 495.297 115.572 497.642 114.337L497.875 114.78C500.219 113.545 502.567 112.32 504.92 111.104L504.691 110.66C507.045 109.444 509.404 108.237 511.768 107.04L511.994 107.486C514.357 106.289 516.725 105.102 519.097 103.924L518.875 103.476C521.249 102.298 523.627 101.129 526.01 99.9697L526.229 100.419C528.611 99.2606 530.997 98.1115 533.388 96.972L533.172 96.5207C535.565 95.3804 537.962 94.2498 540.363 93.1289L540.574 93.5819C542.974 92.4614 545.379 91.3506 547.788 90.2494L547.58 89.7947C549.99 88.693 552.405 87.601 554.824 86.5187L555.028 86.9751C557.446 85.8932 559.868 84.8211 562.294 83.7587L562.093 83.3007C564.521 82.2377 566.953 81.1845 569.389 80.141L569.586 80.6006C572.02 79.5577 574.459 78.5245 576.902 77.5011L576.709 77.0399C579.153 76.016 581.601 75.0019 584.054 73.9976L584.243 74.4603C586.694 73.4565 589.149 72.4625 591.609 71.4784L591.423 71.0142C593.883 70.0295 596.347 69.0548 598.816 68.0898L598.998 68.5555C601.464 67.5911 603.935 66.6366 606.41 65.692L606.231 65.2249C608.707 64.2799 611.187 63.3447 613.67 62.4195L613.844 62.888C616.326 61.9633 618.812 61.0485 621.302 60.1435L621.131 59.6736C623.621 58.7684 626.116 57.873 628.614 56.9877L628.781 57.459C631.277 56.5742 633.777 55.6994 636.28 54.8346L636.117 54.362C638.622 53.4967 641.13 52.6414 643.642 51.7961L643.802 52.27C646.312 51.4253 648.826 50.5906 651.343 49.7659L651.187 49.2908C653.705 48.4659 656.227 47.651 658.751 46.8462L658.903 47.3226C661.427 46.5182 663.954 45.7239 666.484 44.9396L666.336 44.462C668.867 43.6774 671.402 42.903 673.94 42.1386L674.084 42.6174C676.619 41.8537 679.158 41.1001 681.7 40.3566L681.56 39.8767C684.103 39.1328 686.65 38.3991 689.2 37.6754L689.336 38.1565C691.884 37.4333 694.435 36.7204 696.99 36.0175L696.857 35.5354C699.411 34.8326 701.969 34.14 704.529 33.4575L704.658 33.9406C707.217 33.2584 709.779 32.5865 712.345 31.9247L712.22 31.4405C714.786 30.7785 717.355 30.1267 719.927 29.4851L720.048 29.9703C722.617 29.3294 725.189 28.6988 727.763 28.0784L727.646 27.5923C730.222 26.9716 732.801 26.3611 735.383 25.7609L735.496 26.2479C738.076 25.6481 740.659 25.0585 743.245 24.4792L743.135 23.9913C745.72 23.4122 748.308 22.8433 750.898 22.2847L751.003 22.7735C753.592 22.2152 756.184 21.6672 758.778 21.1295L758.676 20.6399C761.271 20.102 763.869 19.5744 766.469 19.0571L766.567 19.5475C769.163 19.031 771.762 18.5248 774.364 18.029L774.27 17.5378C776.873 17.0417 779.478 16.556 782.086 16.0805L782.175 16.5724C784.782 16.0973 787.39 15.6325 790.001 15.1781L789.915 14.6855C792.524 14.2314 795.136 13.7877 797.75 13.3544L797.832 13.8477C800.444 13.4145 803.059 12.9918 805.676 12.5794L805.598 12.0855C808.216 11.673 810.837 11.2708 813.46 10.8791L813.534 11.3736C816.151 10.9827 818.771 10.6021 821.393 10.232L821.323 9.7369C823.947 9.36658 826.572 9.00667 829.2 8.65722L829.266 9.15286C831.892 8.80358 834.52 8.46474 837.15 8.13637L837.088 7.64022C839.716 7.31218 842.346 6.99458 844.977 6.68745L845.035 7.18407C847.665 6.87713 850.297 6.58064 852.931 6.29463L852.877 5.79755C855.512 5.5114 858.149 5.23573 860.788 4.97057L860.838 5.46806C863.471 5.20344 866.107 4.9493 868.744 4.70565L868.698 4.20777C871.335 3.96406 873.975 3.73084 876.616 3.50815L876.658 4.00638C879.298 3.7838 881.939 3.57173 884.583 3.37019L884.545 2.87164C887.185 2.67031 889.827 2.4795 892.471 2.29922L892.505 2.79806C895.146 2.61795 897.789 2.44836 900.433 2.28932L900.403 1.79022C903.049 1.63109 905.696 1.48252 908.345 1.34451L908.371 1.84383C911.014 1.7061 913.659 1.57891 916.305 1.46228L916.283 0.962761C918.929 0.846146 921.576 0.740082 924.225 0.644591L924.243 1.14427C926.89 1.04882 929.539 0.963951 932.189 0.889669L932.175 0.389866C934.822 0.315652 937.471 0.252006 940.121 0.198952L940.131 0.698852C942.777 0.645874 945.425 0.603463 948.073 0.571641L948.067 0.0716771C950.717 0.0398388 953.368 0.0185954 956.021 0.00797054L956.023 0.507967C957.348 0.502656 958.674 0.5 960 0.5C961.326 0.5 962.652 0.502656 963.977 0.507966L963.979 0.00797004C966.632 0.0185946 969.283 0.0398377 971.933 0.0716756L971.927 0.571639C974.575 0.603461 977.223 0.645873 979.869 0.69885L979.879 0.19895C982.529 0.252005 985.178 0.315651 987.825 0.389865L987.811 0.889668C990.461 0.963949 993.11 1.04882 995.757 1.14427L995.775 0.64459C998.424 0.74008 1001.07 0.846144 1003.72 0.962759L1003.69 1.46227C1006.34 1.57891 1008.99 1.7061 1011.63 1.84383L1011.66 1.34451C1014.3 1.48252 1016.95 1.63109 1019.6 1.79022L1019.57 2.28932C1022.21 2.44836 1024.85 2.61795 1027.5 2.79806L1027.53 2.29922C1030.17 2.4795 1032.81 2.67032 1035.46 2.87164L1035.42 3.37019C1038.06 3.57173 1040.7 3.7838 1043.34 4.00638L1043.38 3.50816C1046.03 3.73085 1048.66 3.96406 1051.3 4.20777L1051.26 4.70565C1053.89 4.94931 1056.53 5.20345 1059.16 5.46807L1059.21 4.97058C1061.85 5.23574 1064.49 5.51141 1067.12 5.79757L1067.07 6.29464C1069.7 6.58065 1072.33 6.87714 1074.96 7.18409L1075.02 6.68746C1077.65 6.9946 1080.28 7.3122 1082.91 7.64024L1082.85 8.13638C1085.48 8.46476 1088.11 8.8036 1090.73 9.15288L1090.8 8.65724C1093.43 9.0067 1096.05 9.3666 1098.68 9.73693L1098.61 10.232C1101.23 10.6022 1103.85 10.9827 1106.47 11.3737L1106.54 10.8791C1109.16 11.2709 1111.78 11.673 1114.4 12.0856L1114.32 12.5795C1116.94 12.9918 1119.56 13.4146 1122.17 13.8477L1122.25 13.3544C1124.86 13.7878 1127.48 14.2315 1130.08 14.6856L1130 15.1782C1132.61 15.6326 1135.22 16.0973 1137.82 16.5725L1137.91 16.0806C1140.52 16.556 1143.13 17.0418 1145.73 17.5379L1145.64 18.029C1148.24 18.5249 1150.84 19.0311 1153.43 19.5476L1153.53 19.0572C1156.13 19.5744 1158.73 20.102 1161.32 20.64L1161.22 21.1295C1163.82 21.6673 1166.41 22.2153 1169 22.7736L1169.1 22.2848C1171.69 22.8434 1174.28 23.4122 1176.86 23.9914L1176.76 24.4793C1179.34 25.0586 1181.92 25.6482 1184.5 26.248L1184.62 25.761C1187.2 26.3612 1189.78 26.9717 1192.35 27.5924L1192.24 28.0785C1194.81 28.6989 1197.38 29.3295 1199.95 29.9704L1200.07 29.4852C1202.65 30.1268 1205.21 30.7786 1207.78 31.4406L1207.66 31.9248C1210.22 32.5866 1212.78 33.2585 1215.34 33.9407L1215.47 33.4576C1218.03 34.1401 1220.59 34.8327 1223.14 35.5356L1223.01 36.0176C1225.56 36.7205 1228.12 37.4335 1230.66 38.1566L1230.8 37.6756C1233.35 38.3992 1235.9 39.1329 1238.44 39.8768L1238.3 40.3567C1240.84 41.1002 1243.38 41.8538 1245.92 42.6175L1246.06 42.1387C1248.6 42.9031 1251.13 43.6776 1253.66 44.4621L1253.52 44.9397C1256.05 45.724 1258.57 46.5183 1261.1 47.3227L1261.25 46.8464C1263.77 47.6512 1266.3 48.466 1268.81 49.2909L1268.66 49.766C1271.17 50.5907 1273.69 51.4254 1276.2 52.2702L1276.36 51.7963C1278.87 52.6416 1281.38 53.4968 1283.88 54.3621L1283.72 54.8347C1286.22 55.6995 1288.72 56.5743 1291.22 57.4591L1291.39 56.9878C1293.88 57.8732 1296.38 58.7685 1298.87 59.6738L1298.7 60.1437C1301.19 61.0486 1303.67 61.9634 1306.16 62.8882L1306.33 62.4197C1308.81 63.3449 1311.29 64.28 1313.77 65.2251L1313.59 65.6922C1316.07 66.6368 1318.54 67.5913 1321 68.5557L1321.18 68.09C1323.65 69.0549 1326.12 70.0297 1328.58 71.0143L1328.39 71.4786C1330.85 72.4627 1333.31 73.4567 1335.76 74.4605L1335.95 73.9978C1338.4 75.0021 1340.85 76.0162 1343.29 77.0401L1343.1 77.5013C1345.54 78.5247 1347.98 79.5578 1350.41 80.6008L1350.61 80.1412C1353.05 81.1846 1355.48 82.2379 1357.91 83.3009L1357.71 83.7589C1360.13 84.8213 1362.55 85.8934 1364.97 86.9752L1365.18 86.5189C1367.6 87.6012 1370.01 88.6932 1372.42 89.7949L1372.21 90.2496C1374.62 91.3508 1377.03 92.4616 1379.43 93.5821L1379.64 93.1291C1382.04 94.25 1384.44 95.3806 1386.83 96.5209L1386.61 96.9722C1389 98.1117 1391.39 99.2608 1393.77 100.42L1393.99 99.9699C1396.37 101.129 1398.75 102.298 1401.13 103.477L1400.9 103.924C1403.28 105.102 1405.64 106.29 1408.01 107.486L1408.23 107.04C1410.6 108.237 1412.96 109.444 1415.31 110.66L1415.08 111.105C1417.43 112.32 1419.78 113.545 1422.13 114.78L1422.36 114.338C1424.7 115.573 1427.04 116.817 1429.38 118.071L1429.14 118.512C1431.47 119.765 1433.8 121.027 1436.13 122.299L1436.37 121.86C1438.69 123.133 1441.01 124.415 1443.32 125.706L1443.08 126.143C1445.39 127.433 1447.7 128.733 1450.01 130.042L1450.25 129.607C1452.56 130.916 1454.85 132.235 1457.15 133.563L1456.9 133.996C1459.19 135.323 1461.48 136.66 1463.76 138.005L1464.01 137.575C1466.29 138.921 1468.57 140.277 1470.84 141.642L1470.59 142.07C1472.86 143.434 1475.12 144.806 1477.38 146.188L1477.64 145.762C1479.9 147.145 1482.16 148.536 1484.41 149.938L1484.14 150.362C1486.39 151.762 1488.63 153.172 1490.87 154.59L1491.14 154.168C1493.38 155.586 1495.61 157.014 1497.83 158.45L1497.56 158.87C1499.79 160.306 1502.01 161.751 1504.22 163.205L1504.5 162.787C1506.71 164.242 1508.92 165.706 1511.13 167.179L1510.85 167.594C1513.05 169.065 1515.25 170.545 1517.44 172.034L1517.72 171.62C1519.91 173.11 1522.09 174.609 1524.27 176.116L1523.99 176.528C1526.17 178.034 1528.34 179.55 1530.51 181.075L1530.8 180.666C1532.96 182.19 1535.12 183.723 1537.28 185.265L1536.99 185.671C1539.14 187.212 1541.29 188.762 1543.43 190.321L1543.73 189.917C1545.87 191.477 1548.01 193.046 1550.14 194.623L1549.84 195.025C1551.97 196.6 1554.09 198.183 1556.2 199.775L1556.51 199.376C1558.62 200.969 1560.73 202.571 1562.84 204.182L1562.53 204.579C1564.64 206.189 1566.74 207.808 1568.83 209.435L1569.14 209.041C1571.23 210.667 1573.31 212.302 1575.39 213.945L1575.08 214.337C1577.15 215.98 1579.22 217.632 1581.29 219.292L1581.6 218.902C1583.67 220.563 1585.73 222.233 1587.78 223.911L1587.47 224.298C1589.51 225.973 1591.56 227.657 1593.59 229.349L1593.91 228.965C1595.95 230.658 1597.98 232.359 1600.01 234.069L1599.69 234.451C1601.71 236.16 1603.73 237.878 1605.74 239.605L1606.06 239.225C1608.07 240.95 1610.08 242.684 1612.07 244.426L1611.75 244.802C1613.74 246.543 1615.73 248.291 1617.71 250.049L1618.04 249.675C1620.03 251.433 1622 253.2 1623.97 254.975L1623.64 255.346C1625.61 257.118 1627.57 258.898 1629.52 260.687L1629.86 260.318C1631.81 262.107 1633.76 263.904 1635.7 265.709L1635.36 266.075C1637.3 267.879 1639.23 269.692 1641.16 271.514L1641.5 271.15C1643.42 272.97 1645.34 274.798 1647.25 276.634L1646.91 276.995C1648.81 278.828 1650.72 280.67 1652.61 282.521L1652.96 282.163C1654.86 284.014 1656.75 285.874 1658.63 287.742L1658.28 288.097C1659.22 289.03 1660.16 289.966 1661.1 290.904C1662.03 291.841 1662.97 292.781 1663.9 293.722L1664.26 293.369C1666.13 295.252 1667.99 297.142 1669.84 299.038L1669.48 299.388C1671.33 301.283 1673.17 303.185 1675.01 305.094L1675.37 304.747C1677.2 306.659 1679.03 308.577 1680.85 310.501L1680.49 310.845C1682.31 312.771 1684.12 314.704 1685.92 316.643L1686.29 316.303C1688.1 318.243 1689.89 320.19 1691.68 322.143L1691.31 322.481C1693.1 324.434 1694.88 326.395 1696.65 328.361L1697.02 328.026C1698.8 329.997 1700.57 331.974 1702.33 333.957L1701.95 334.289C1703.71 336.271 1705.46 338.26 1707.2 340.255L1707.57 339.926C1709.32 341.923 1711.05 343.926 1712.77 345.936L1712.4 346.261C1714.12 348.273 1715.84 350.291 1717.55 352.315L1717.93 351.992C1719.64 354.017 1721.34 356.049 1723.04 358.086L1722.65 358.405C1724.34 360.442 1726.03 362.486 1727.7 364.535L1728.09 364.218C1729.77 366.272 1731.44 368.331 1733.1 370.397L1732.71 370.71C1734.37 372.775 1736.02 374.846 1737.66 376.922L1738.05 376.612C1739.7 378.69 1741.33 380.774 1742.96 382.864L1742.56 383.171C1744.19 385.263 1745.81 387.361 1747.42 389.465L1747.82 389.162C1749.43 391.267 1751.03 393.378 1752.62 395.494L1752.22 395.795C1753.82 397.911 1755.4 400.032 1756.97 402.16L1757.38 401.862C1758.95 403.994 1760.52 406.132 1762.08 408.275L1761.68 408.569C1763.24 410.711 1764.79 412.859 1766.33 415.012L1766.74 414.721C1768.28 416.876 1769.81 419.036 1771.33 421.202L1770.92 421.49C1772.45 423.658 1773.97 425.831 1775.47 428.01L1775.88 427.725C1777.39 429.905 1778.89 432.091 1780.38 434.282L1779.97 434.563C1781.46 436.754 1782.94 438.949 1784.41 441.15L1784.82 440.873C1786.29 443.077 1787.76 445.287 1789.21 447.502L1788.8 447.777C1790.25 449.991 1791.69 452.211 1793.13 454.437L1793.55 454.166C1794.99 456.392 1796.41 458.624 1797.83 460.861L1797.41 461.129C1798.83 463.367 1800.24 465.61 1801.64 467.859L1802.06 467.594C1803.46 469.844 1804.86 472.1 1806.24 474.36L1805.81 474.621C1807.19 476.88 1808.57 479.145 1809.93 481.414L1810.36 481.157C1811.72 483.429 1813.08 485.707 1814.43 487.989L1813.99 488.243C1815.34 490.525 1816.68 492.812 1818 495.104L1818.44 494.854C1819.77 497.147 1821.08 499.445 1822.39 501.748L1821.96 501.995C1823.27 504.298 1824.57 506.606 1825.86 508.919L1826.29 508.676C1827.59 510.99 1828.87 513.31 1830.14 515.635L1829.7 515.875C1830.97 518.198 1832.24 520.526 1833.49 522.859L1833.93 522.622C1835.18 524.957 1836.43 527.297 1837.66 529.642L1837.22 529.875C1838.45 532.218 1839.68 534.567 1840.9 536.92L1841.34 536.691C1842.56 539.045 1843.76 541.404 1844.96 543.768L1844.51 543.994C1845.71 546.357 1846.9 548.725 1848.08 551.097L1848.52 550.875C1849.7 553.249 1850.87 555.627 1852.03 558.01L1851.58 558.229C1852.74 560.611 1853.89 562.997 1855.03 565.388L1855.48 565.172C1856.62 567.565 1857.75 569.962 1858.87 572.363L1858.42 572.574C1859.54 574.974 1860.65 577.379 1861.75 579.788L1862.21 579.58C1863.31 581.99 1864.4 584.405 1865.48 586.824L1865.02 587.028C1866.11 589.446 1867.18 591.868 1868.24 594.294L1868.7 594.093C1869.76 596.521 1870.82 598.953 1871.86 601.389L1871.4 601.585C1872.44 604.02 1873.48 606.459 1874.5 608.902L1874.96 608.709C1875.98 611.153 1877 613.601 1878 616.054L1877.54 616.243C1878.54 618.694 1879.54 621.149 1880.52 623.608L1880.99 623.423C1881.97 625.883 1882.95 628.347 1883.91 630.816L1883.44 630.998C1884.41 633.464 1885.36 635.935 1886.31 638.41L1886.78 638.231C1887.72 640.707 1888.66 643.186 1889.58 645.67L1889.11 645.844C1890.04 648.326 1890.95 650.812 1891.86 653.302L1892.33 653.131C1893.23 655.621 1894.13 658.116 1895.01 660.614L1894.54 660.781C1895.43 663.277 1896.3 665.777 1897.17 668.28L1897.64 668.117C1898.5 670.622 1899.36 673.13 1900.2 675.642L1899.73 675.802C1900.57 678.312 1901.41 680.826 1902.23 683.343L1902.71 683.187C1903.53 685.705 1904.35 688.227 1905.15 690.751L1904.68 690.903C1905.48 693.427 1906.28 695.954 1907.06 698.484L1907.54 698.336C1908.32 700.867 1909.1 703.402 1909.86 705.939L1909.38 706.084C1910.15 708.619 1910.9 711.158 1911.64 713.7L1912.12 713.56C1912.87 716.103 1913.6 718.65 1914.32 721.2L1913.84 721.336C1914.09 722.206 1914.34 723.076 1914.58 723.947C1915.05 725.627 1915.52 727.307 1915.98 728.99L1916.46 728.857C1917.17 731.411 1917.86 733.969 1918.54 736.529L1918.06 736.658C1918.74 739.217 1919.41 741.779 1920.08 744.345L1920.56 744.22C1921.22 746.786 1921.87 749.355 1922.51 751.927L1922.03 752.048C1922.67 754.617 1923.3 757.189 1923.92 759.763L1924.41 759.646C1925.03 762.222 1925.64 764.801 1926.24 767.383L1925.75 767.496C1926.35 770.076 1926.94 772.659 1927.52 775.245L1928.01 775.135C1928.59 777.72 1929.16 780.307 1929.72 782.898L1929.23 783.003C1929.78 785.592 1930.33 788.183 1930.87 790.778L1931.36 790.676C1931.9 793.271 1932.43 795.869 1932.94 798.469L1932.45 798.567C1932.97 801.163 1933.48 803.762 1933.97 806.364L1934.46 806.27C1934.96 808.873 1935.44 811.478 1935.92 814.086L1935.43 814.175C1935.9 816.781 1936.37 819.39 1936.82 822.001L1937.31 821.915C1937.77 824.524 1938.21 827.136 1938.65 829.75L1938.15 829.831C1938.59 832.444 1939.01 835.059 1939.42 837.676L1939.91 837.598C1940.33 840.216 1940.73 842.837 1941.12 845.46L1940.63 845.534C1941.02 848.151 1941.4 850.771 1941.77 853.393L1942.26 853.323C1942.63 855.947 1942.99 858.572 1943.34 861.2L1942.85 861.265C1943.2 863.892 1943.54 866.52 1943.86 869.15L1944.36 869.088C1944.69 871.716 1945.01 874.346 1945.31 876.977L1944.82 877.035C1945.12 879.665 1945.42 882.297 1945.71 884.931L1946.2 884.877C1946.49 887.512 1946.76 890.149 1947.03 892.788L1946.53 892.838C1946.8 895.471 1947.05 898.106 1947.29 900.744L1947.79 900.698C1948.04 903.335 1948.27 905.975 1948.49 908.616L1947.99 908.658C1948.22 911.298 1948.43 913.939 1948.63 916.582L1949.13 916.544C1949.33 919.185 1949.52 921.827 1949.7 924.471L1949.2 924.505C1949.38 927.146 1949.55 929.789 1949.71 932.433L1950.21 932.403C1950.37 935.049 1950.52 937.696 1950.66 940.345L1950.16 940.371C1950.29 943.014 1950.42 945.659 1950.54 948.305L1951.04 948.283C1951.15 950.929 1951.26 953.576 1951.36 956.225L1950.86 956.243C1950.95 958.89 1951.04 961.539 1951.11 964.189L1951.61 964.175C1951.68 966.822 1951.75 969.471 1951.8 972.121L1951.3 972.131C1951.35 974.777 1951.4 977.425 1951.43 980.073L1951.93 980.067C1951.96 982.717 1951.98 985.368 1951.99 988.02L1951.49 988.022C1951.5 989.181 1951.5 990.341 1951.5 991.5H1948V992H1940V991.5H1932V992H1924V991.5H1916V992H1908V991.5H1900V992H1892V991.5H1884V992H1876V991.5H1868V992H1860V991.5H1852V992H1844V991.5H1836V992H1828V991.5H1820V992H1812V991.5H1804V992H1796V991.5H1788V992H1780V991.5H1772V992H1764V991.5H1756V992H1748V991.5H1740V992H1732V991.5H1724V992H1716V991.5H1708V992H1700V991.5H1692V992H1684V991.5H1676V992H1668V991.5H1660V992H1652V991.5H1644V992H1636V991.5H1628V992H1620V991.5H1612V992H1604V991.5H1596V992H1588V991.5H1580V992H1572V991.5H1564V992H1556V991.5H1548V992H1540V991.5H1532V992H1524V991.5H1516V992H1508V991.5H1500V992H1492V991.5H1484V992H1476V991.5H1468V992H1460V991.5L1452 991.5V992H1444V991.5H1436V992H1428V991.5H1420V992H1412V991.5H1404V992H1396V991.5H1388V992H1380V991.5H1372V992H1364V991.5H1356V992H1348V991.5H1340V992H1332V991.5H1324V992H1316V991.5H1308V992H1300V991.5H1292V992H1284V991.5H1276V992H1268V991.5H1260V992H1252V991.5H1244V992H1236V991.5H1228V992H1220V991.5H1212V992H1204V991.5H1196V992H1188V991.5H1180V992H1172V991.5H1164V992H1156V991.5H1148V992H1140V991.5H1132V992H1124V991.5H1116V992H1108V991.5H1100V992H1092V991.5H1084V992H1076V991.5H1068V992H1060V991.5H1052V992H1044V991.5H1036V992H1028V991.5H1020V992H1012V991.5H1004V992H996V991.5H988V992H980V991.5H972V992H964V991.5H956V992H948V991.5H940V992H932V991.5H924V992H916V991.5H908V992H900V991.5H892V992H884V991.5H876V992H868V991.5H860V992H852V991.5H844V992H836V991.5H828V992H820V991.5H812V992H804V991.5H796V992H788V991.5H780V992H772V991.5H764V992H756V991.5H748V992H740V991.5H732V992H724V991.5H716V992H708V991.5H700V992H692V991.5H684V992H676V991.5H668V992H660V991.5H652V992H644V991.5H636V992H628V991.5H620V992H612V991.5H604V992H596V991.5H588V992H580V991.5H572V992H564V991.5H556V992H548V991.5H540V992H532V991.5H524V992H516V991.5H508V992H500V991.5H492V992H484V991.5H476V992H468V991.5L460 991.5V992H452V991.5H444V992H436V991.5H428V992H420V991.5H412V992H404V991.5H396V992H388L388 991.5H380V992H372V991.5H364V992H356L356 991.5H348V992H340V991.5H332V992H324L324 991.5H316V992H308V991.5H300V992H292L292 991.5H284V992H276V991.5H268V992H260V991.5H252V992H244V991.5H236V992H228V991.5H220V992H212V991.5H204V992H196V991.5H188V992H180V991.5H172V992H164V991.5H156V992H148L148 991.5H140V992H132L132 991.5H124V992H116L116 991.5H108V992H100L100 991.5H92V992H84V991.5H76V992H68V991.5H60V992H52V991.5H44V992H36.0001V991.5H27.9999V992H20V991.5H12V992H3.99997V991.5H-4.00003V992H-12V991.5H-20V992H-28V991.5H-31.4999Z" stroke="#5B5B5B" stroke-dasharray="8 8"/>
</svg>
