<svg width="30" height="29" viewBox="0 0 30 29" fill="none" xmlns="http://www.w3.org/2000/svg">
<path d="M1.04548 19.2682L2.82114 17.5819L6.92759 18.2653L13.5229 12.002L0.845161 4.66371L3.2127 2.41534L18.852 6.86073L25.4452 0.679834C25.9243 0.224807 26.5073 0.0061599 27.1942 0.0238938C27.8811 0.0416277 28.4521 0.290067 28.9071 0.769213C29.3621 1.24836 29.5808 1.83138 29.563 2.51827C29.5453 3.20516 29.2969 3.77612 28.8177 4.23115L22.3048 10.4966L25.9373 26.3444L23.5698 28.5928L16.8954 15.5533L10.3002 21.8166L10.7707 25.9529L8.99508 27.6391L6.24633 22.2893L1.04548 19.2682Z" fill="#093952"/>
</svg>
