<svg width="34" height="34" viewBox="0 0 34 34" fill="none" xmlns="http://www.w3.org/2000/svg">
<rect width="34" height="34" rx="17" fill="#F09A4A"/>
<path fill-rule="evenodd" clip-rule="evenodd" d="M17.5951 9.50716C17.8673 9.19494 18.3411 9.16249 18.6533 9.43468L24.4929 14.5256C24.7286 14.7311 24.8121 15.0613 24.7023 15.3541C24.5926 15.6469 24.3127 15.8409 24 15.8409H10C9.58579 15.8409 9.25 15.5051 9.25 15.0909C9.25 14.6767 9.58579 14.3409 10 14.3409H21.9984L17.6676 10.5653C17.3554 10.2931 17.3229 9.81938 17.5951 9.50716Z" fill="white"/>
<path fill-rule="evenodd" clip-rule="evenodd" d="M16.4049 24.493C16.1327 24.8052 15.659 24.8376 15.3468 24.5654L9.50718 19.4745C9.27147 19.269 9.188 18.9389 9.29772 18.646C9.40744 18.3532 9.68733 18.1592 10 18.1592H24C24.4142 18.1592 24.75 18.495 24.75 18.9092C24.75 19.3234 24.4142 19.6592 24 19.6592H12.0016L16.3325 23.4348C16.6447 23.707 16.6771 24.1807 16.4049 24.493Z" fill="white"/>
</svg>
