<svg width="29" height="29" viewBox="0 0 29 29" fill="none" xmlns="http://www.w3.org/2000/svg">
<rect width="29" height="29" fill="#F5F5F5"/>
<g id="TT LP 4" clip-path="url(#clip0_0_1)">
<rect width="1920" height="6657" transform="translate(-1140 -2722)" fill="white"/>
<rect id="Rectangle 105" x="-1140" y="-359" width="1920" height="934" fill="#093952"/>
<g id="Group 72">
<g id="Group 71">
<path id="Vector" fill-rule="evenodd" clip-rule="evenodd" d="M7.25 0C5.32718 0 3.48311 0.763837 2.12348 2.12348C0.763837 3.48311 0 5.32718 0 7.25V21.75C0 23.6728 0.763837 25.5169 2.12348 26.8765C3.48311 28.2362 5.32718 29 7.25 29H21.75C23.6728 29 25.5169 28.2362 26.8765 26.8765C28.2362 25.5169 29 23.6728 29 21.75V7.25C29 5.32718 28.2362 3.48311 26.8765 2.12348C25.5169 0.763837 23.6728 0 21.75 0H7.25ZM19.9085 12.5918C20.0387 12.4528 20.1403 12.2895 20.2075 12.1112C20.2746 11.933 20.306 11.7432 20.2998 11.5528C20.2936 11.3624 20.25 11.1751 20.1714 11.0016C20.0928 10.8281 19.9808 10.6717 19.8418 10.5415C19.7028 10.4113 19.5395 10.3097 19.3612 10.2425C19.183 10.1754 18.9932 10.144 18.8028 10.1502C18.6124 10.1564 18.4251 10.2 18.2516 10.2786C18.0781 10.3572 17.9217 10.4692 17.7915 10.6082L13.3212 15.3787L11.1128 13.4169C10.8235 13.1763 10.452 13.0577 10.0768 13.086C9.70158 13.1143 9.35209 13.2873 9.10212 13.5686C8.85215 13.8498 8.72128 14.2171 8.73715 14.5931C8.75303 14.969 8.91441 15.324 9.1872 15.5831L12.4497 18.4832C12.732 18.7339 13.101 18.8647 13.4782 18.8476C13.8554 18.8305 14.211 18.667 14.4696 18.3918L19.9085 12.5918Z" fill="#35CAFA"/>
</g>
</g>
</g>
<defs>
<clipPath id="clip0_0_1">
<rect width="1920" height="6657" fill="white" transform="translate(-1140 -2722)"/>
</clipPath>
</defs>
</svg>
