<svg width="136" height="24" viewBox="0 0 136 24" fill="none" xmlns="http://www.w3.org/2000/svg">
<rect width="24" height="24" rx="4" fill="#F94543"/>
<rect x="28" width="24" height="24" rx="4" fill="#F94543"/>
<rect x="56" width="24" height="24" rx="4" fill="#F94543"/>
<rect x="84" width="24" height="24" rx="4" fill="#F94543"/>
<rect x="112" width="24" height="24" rx="4" fill="#F94543"/>
<path d="M11.0815 6.13274C11.4286 5.32678 12.5714 5.32678 12.9185 6.13274L13.9282 8.47746C14.073 8.81363 14.3898 9.04385 14.7543 9.07765L17.2963 9.31342C18.17 9.39446 18.5232 10.4813 17.8639 11.0604L15.946 12.7453C15.671 12.9869 15.55 13.3594 15.6304 13.7164L16.1917 16.2069C16.3847 17.0629 15.4602 17.7346 14.7056 17.2866L12.5106 15.9832C12.1958 15.7963 11.8042 15.7963 11.4894 15.9832L9.29436 17.2866C8.53983 17.7346 7.61533 17.0629 7.80827 16.2069L8.36956 13.7164C8.45004 13.3594 8.329 12.9869 8.05402 12.7453L6.13609 11.0604C5.47682 10.4813 5.82995 9.39446 6.70372 9.31342L9.24571 9.07765C9.61016 9.04385 9.92704 8.81363 10.0718 8.47746L11.0815 6.13274Z" fill="white"/>
<path d="M39.0815 6.13274C39.4286 5.32678 40.5714 5.32678 40.9185 6.13274L41.9282 8.47746C42.073 8.81363 42.3898 9.04385 42.7543 9.07765L45.2963 9.31342C46.17 9.39446 46.5232 10.4813 45.8639 11.0604L43.946 12.7453C43.671 12.9869 43.55 13.3594 43.6304 13.7164L44.1917 16.2069C44.3847 17.0629 43.4602 17.7346 42.7056 17.2866L40.5106 15.9832C40.1958 15.7963 39.8042 15.7963 39.4894 15.9832L37.2944 17.2866C36.5398 17.7346 35.6153 17.0629 35.8083 16.2069L36.3696 13.7164C36.45 13.3594 36.329 12.9869 36.054 12.7453L34.1361 11.0604C33.4768 10.4813 33.83 9.39446 34.7037 9.31342L37.2457 9.07765C37.6102 9.04385 37.927 8.81363 38.0718 8.47746L39.0815 6.13274Z" fill="white"/>
<path d="M67.0815 6.13274C67.4286 5.32678 68.5714 5.32678 68.9185 6.13274L69.9282 8.47746C70.073 8.81363 70.3898 9.04385 70.7543 9.07765L73.2963 9.31342C74.17 9.39446 74.5232 10.4813 73.8639 11.0604L71.946 12.7453C71.671 12.9869 71.55 13.3594 71.6304 13.7164L72.1917 16.2069C72.3847 17.0629 71.4602 17.7346 70.7056 17.2866L68.5106 15.9832C68.1958 15.7963 67.8042 15.7963 67.4894 15.9832L65.2944 17.2866C64.5398 17.7346 63.6153 17.0629 63.8083 16.2069L64.3696 13.7164C64.45 13.3594 64.329 12.9869 64.054 12.7453L62.1361 11.0604C61.4768 10.4813 61.83 9.39446 62.7037 9.31342L65.2457 9.07765C65.6102 9.04385 65.927 8.81363 66.0718 8.47746L67.0815 6.13274Z" fill="white"/>
<path d="M95.0815 6.13274C95.4286 5.32678 96.5714 5.32678 96.9185 6.13274L97.9282 8.47746C98.073 8.81363 98.3898 9.04385 98.7543 9.07765L101.296 9.31342C102.17 9.39446 102.523 10.4813 101.864 11.0604L99.946 12.7453C99.671 12.9869 99.55 13.3594 99.6304 13.7164L100.192 16.2069C100.385 17.0629 99.4602 17.7346 98.7056 17.2866L96.5106 15.9832C96.1958 15.7963 95.8042 15.7963 95.4894 15.9832L93.2944 17.2866C92.5398 17.7346 91.6153 17.0629 91.8083 16.2069L92.3696 13.7164C92.45 13.3594 92.329 12.9869 92.054 12.7453L90.1361 11.0604C89.4768 10.4813 89.83 9.39446 90.7037 9.31342L93.2457 9.07765C93.6102 9.04385 93.927 8.81363 94.0718 8.47746L95.0815 6.13274Z" fill="white"/>
<path d="M123.082 6.13274C123.429 5.32678 124.571 5.32678 124.918 6.13274L125.928 8.47746C126.073 8.81363 126.39 9.04385 126.754 9.07765L129.296 9.31342C130.17 9.39446 130.523 10.4813 129.864 11.0604L127.946 12.7453C127.671 12.9869 127.55 13.3594 127.63 13.7164L128.192 16.2069C128.385 17.0629 127.46 17.7346 126.706 17.2866L124.511 15.9832C124.196 15.7963 123.804 15.7963 123.489 15.9832L121.294 17.2866C120.54 17.7346 119.615 17.0629 119.808 16.2069L120.37 13.7164C120.45 13.3594 120.329 12.9869 120.054 12.7453L118.136 11.0604C117.477 10.4813 117.83 9.39446 118.704 9.31342L121.246 9.07765C121.61 9.04385 121.927 8.81363 122.072 8.47746L123.082 6.13274Z" fill="white"/>
</svg>
